<?xml version="1.0" standalone="no"?>
<!DOCTYPE svg PUBLIC "-//W3C//DTD SVG 20010904//EN"
 "http://www.w3.org/TR/2001/REC-SVG-20010904/DTD/svg10.dtd">
<svg version="1.0" xmlns="http://www.w3.org/2000/svg"
 width="96.000000pt" height="96.000000pt" viewBox="0 0 96.000000 96.000000"
 preserveAspectRatio="xMidYMid meet">

<g transform="translate(0.000000,96.000000) scale(0.100000,-0.100000)"
fill="#8b5cf6" stroke="none">
<path d="M380 791 c-133 -41 -220 -153 -219 -281 l1 -65 9 44 c10 52 21 78 15
39 -2 -16 -2 -28 -1 -28 2 0 16 29 33 63 69 148 212 218 354 174 27 -8 45 -11
42 -6 -8 14 9 10 36 -8 l25 -17 -19 22 c-37 42 -114 72 -185 71 -37 0 -77 -4
-91 -8z"/>
<path d="M369 673 c-76 -39 -112 -93 -117 -179 -6 -86 16 -141 74 -193 42 -37
104 -61 156 -61 13 1 47 9 76 19 28 10 52 17 52 16 0 -11 -91 -58 -130 -67
-33 -7 -46 -14 -38 -20 22 -13 112 -9 161 8 57 19 141 92 169 147 37 73 37
217 0 265 -18 23 -18 22 -14 -40 4 -74 -23 -160 -63 -198 -29 -27 -30 -25 -10
23 33 80 10 181 -56 244 -73 69 -168 82 -260 36z m187 -32 c73 -33 111 -106
101 -193 -8 -62 -31 -101 -82 -136 -57 -39 -144 -39 -203 1 -68 44 -102 132
-82 209 13 48 83 123 122 131 52 10 105 5 144 -12z"/>
<path d="M384 536 c-10 -26 0 -61 19 -64 21 -4 31 19 23 53 -7 27 -33 34 -42
11z"/>
<path d="M524 536 c-10 -25 0 -61 18 -64 12 -2 19 5 24 22 10 39 -29 77 -42
42z"/>
<path d="M350 425 c0 -24 48 -64 89 -75 50 -13 103 3 136 42 38 46 16 60 -30
19 -24 -21 -46 -31 -68 -31 -34 0 -97 33 -97 50 0 5 -7 10 -15 10 -8 0 -15 -7
-15 -15z"/>
</g>
</svg>
